<svg width="240" height="240" viewBox="0 0 240 240" fill="none" xmlns="http://www.w3.org/2000/svg">
<circle cx="120" cy="120" r="120" fill="#FFCD4C"/>
<path d="M230 32.5002C241 50.5002 236 95.0003 159 106.5C115 62.5 123 17.4999 143 6.99994C163 -3.5 182.5 10.5 187 24.0002C193 20.0002 219 14.5002 230 32.5002Z" fill="#DE2A42"/>
<path d="M10.3812 33.1735C-0.61879 51.1735 4.38095 95.6736 81.3809 107.174C125.381 63.1733 117.381 18.1732 97.3811 7.67327C77.3814 -2.82666 57.8813 11.1733 53.3809 24.6736C47.3812 20.6735 21.3812 15.1736 10.3812 33.1735Z" fill="#DE2A42"/>
<path d="M120.999 145C158.499 145 171.5 138 176 142.5C187.5 154 164.499 198.5 120.999 198.5C77.4995 198.5 54.929 161.5 62 145C66.2855 135 83.5 145 120.999 145Z" fill="#664300"/>
</svg>
