<svg width="240" height="240" viewBox="0 0 240 240" fill="none" xmlns="http://www.w3.org/2000/svg">
<circle cx="120" cy="120" r="120" fill="#FFCD4C"/>
<path d="M192 135.5C188 135.5 178.5 126 164.5 123C150.5 120 141 125.5 137 123C133 120.5 152 99.0001 172 104.5C192 110 196 135.5 192 135.5Z" fill="#664300"/>
<path d="M48.3939 135.897C52.3939 135.897 61.8939 126.397 75.8939 123.397C89.8939 120.397 99.394 125.896 103.394 123.397C107.394 120.897 88.3939 99.3966 68.3939 104.897C48.3939 110.397 44.3939 135.897 48.3939 135.897Z" fill="#664300"/>
<path d="M119.5 162.5C145 162.5 159.5 189.5 155 194.5C150.5 199.5 153 188.5 119.5 188.5C86 188.5 87.5002 197 84.0001 194.5C80.5001 192 94.0001 162.5 119.5 162.5Z" fill="#664300"/>
</svg>
