<svg width="240" height="240" viewBox="0 0 240 240" fill="none" xmlns="http://www.w3.org/2000/svg">
<circle cx="120" cy="120" r="120" fill="#FFCD4C"/>
<path d="M179.5 109.5C179.575 123 174.963 133.5 164 133.5C153.037 133.5 147 122 147 109.5C147 97 153.5 87 164 87C174.5 87 179.425 96 179.5 109.5Z" fill="#664300"/>
<path d="M92.5 109.5C92.5748 123 87.9625 133.5 76.9998 133.5C66.0371 133.5 60.0001 122 60 109.5C59.9999 97 66.4996 87 76.9998 87C87.5 87 92.4252 96 92.5 109.5Z" fill="#664300"/>
<path d="M122.501 160C148.001 160 173.001 159.5 173.001 167.5C173.001 175.5 156.001 173 122.501 173C89.0008 173 66.5 175 66.5 167.5C66.5 160 97.0006 160 122.501 160H122.501Z" fill="#664300"/>
</svg>
